/* XPM */
static char *baac074a000f4e9eb88d2e2c29b6b3d7[] = {
/* columns rows colors chars-per-pixel */
"16 16 2 1 ",
"  c #FCBA1E",
". c None",
/* pixels */
"................",
"................",
"................",
"..      ....  ..",
".      ....   ..",
"   .   ..   ..  ",
".              .",
"..            ..",
"...          ...",
"....   ..   ....",
".....      .....",
"......    ......",
".......  .......",
"................",
"................",
"................"
};
