/* XPM */
static char *b408526b652648d38bd2aaae4419e67d[] = {
/* columns rows colors chars-per-pixel */
"32 32 2 1 ",
"  c #FCBA1E",
". c None",
/* pixels */
"................................",
"................................",
"................................",
"................................",
"................................",
"......     .   .. ....... ......",
".....     .    . .......   .....",
"....     .      .......      ...",
"..      .      .......       ...",
".      .      .......      ..  .",
".......      ...................",
".      .       ..        ..    .",
".       .       .       ..    ..",
"..       .      .      ..    ...",
"...       .     .     ..    ....",
"....      ..    .    .     .....",
"......     ..   .   .     ......",
".......     ..  .  .     .......",
"........     ..   .     ........",
".........     ....     .........",
"..........     ..     ..........",
"...........          ...........",
"............         ...........",
".............       ............",
"..............     .............",
"...............   ..............",
"................ ...............",
"................................",
"................................",
"................................",
"................................",
"................................"
};
