/* XPM */
static char *beffb1101639403ba75d99b058b5f47e[] = {
/* columns rows colors chars-per-pixel */
"64 64 2 1 ",
"  c #FCBA1E",
". c None",
/* pixels */
"................................................................",
"................................................................",
"................................................................",
"................................................................",
"................................................................",
"................................................................",
"................................................................",
"................................................................",
"................................................................",
"................................................................",
".............         ..       ..    ...........................",
"...........          ...       ..   ..............   ...........",
"..........          ...        ..  ..............     ..........",
".........          ...         .. ..............       .........",
"........          ...          ................          .......",
".......          ...           ...............            ......",
".....            ..            ..............             ......",
"....            ..            ..............             .. ....",
"...            ..            ..............             ..    ..",
".             ..            .............              ..      .",
"...............            .....................................",
"...............           ......................................",
".            ..                ..                   ..         .",
".             ..               ..                 ...         ..",
"..             ..              ..                ...         ...",
"...             ..             ..               ...         ....",
"....             ..            ..              ...         .....",
".....             ..           ..             ...         ......",
"......             ..          ..            ...         .......",
".......             ..         ..           ..          ........",
"........             ..        ..          ..          .........",
".........             ..       ..         ..          ..........",
"...........            ..      ..        ..          ...........",
"............           ...     ..       ..          ............",
".............           ...    ..      ..          .............",
"..............           ...   ..     ..          ..............",
"...............           ...  ..   ...          ...............",
"................           ... ..  ...          ................",
".................           .. .. ...          .................",
"..................           .......          ..................",
"...................           .....          ...................",
"....................           ..           ....................",
".....................                      .....................",
"......................                    ......................",
".......................                   ......................",
"........................                 .......................",
".........................               ........................",
"..........................             .........................",
"...........................           ..........................",
"............................         ...........................",
".............................       ............................",
"..............................     .............................",
"...............................   ..............................",
"................................ ...............................",
"................................................................",
"................................................................",
"................................................................",
"................................................................",
"................................................................",
"................................................................",
"................................................................",
"................................................................",
"................................................................",
"................................................................"
};
