/* XPM */
static char *_4e186a43bc8412ef81d2b0ca3727887[] = {
/* columns rows colors chars-per-pixel */
"128 128 2 1 ",
"  c #FCBA1E",
". c None",
/* pixels */
"................................................................................................................................",
"................................................................................................................................",
"................................................................................................................................",
"................................................................................................................................",
"................................................................................................................................",
"................................................................................................................................",
"................................................................................................................................",
"................................................................................................................................",
"................................................................................................................................",
"................................................................................................................................",
"................................................................................................................................",
"................................................................................................................................",
"................................................................................................................................",
"................................................................................................................................",
"................................................................................................................................",
"................................................................................................................................",
"................................................................................................................................",
"................................................................................................................................",
"................................................................................................................................",
"................................................................................................................................",
"...................................         ......            ....         .....................................................",
".........................                   ....              ....        ...........................   ........................",
"........................                   ....               ....       ...........................     .......................",
"......................                    .....               ....      ...........................       ......................",
".....................                    .....                ....     ...........................         .....................",
"....................                    .....                 ....    ...........................            ...................",
"...................                    .....                  ....   ...........................              ..................",
".................                     .....                   ....  ...........................                .................",
"................                     .....                    ...  ...........................                  ................",
"...............                     .....                     ...............................                     ..............",
"..............                     .....                      ..............................                       .............",
"............                      .....                       .............................                         ............",
"...........                      .....                        ............................                          ............",
"..........                       ....                         ...........................                          .............",
".........                       ....                         ...........................                          ..... ........",
".......                        ....                         ...........................                          .....   .......",
"......                        ....                        ............................                          .....      .....",
".....                        ....                        ............................                          .....        ....",
"....                        ....                        ............................                          .....          ...",
"..                         ....                        ...........................                           .....            ..",
"..                        ....                        ..........................................................................",
".............................                        ...........................................................................",
".............................                       ............................................................................",
"..............................                     .......................................................................     .",
".                         ....                                ....                                      ....                   .",
".                          ....                               ....                                    .....                   ..",
"..                          ....                              ....                                   .....                   ...",
"...                          ....                             ....                                  .....                   ....",
"....                          ....                            ....                                 .....                   .....",
".....                          ....                           ....                                .....                   ......",
"......                         .....                          ....                               .....                   .......",
".......                         .....                         ....                              .....                   ........",
"........                         .....                        ....                             .....                   .........",
".........                         .....                       ....                            .....                   ..........",
"..........                         .....                      ....                           .....                   ...........",
"...........                         .....                     ....                          .....                   ............",
"............                         .....                    ....                         .....                   .............",
".............                         .....                   ....                        .....                   ..............",
"..............                         .....                  ....                      .....                    ...............",
"...............                         .....                 ....                     .....                    ................",
"................                         ....                 ....                    .....                    .................",
".................                         ....                ....                   .....                    ..................",
"..................                         ....               ....                  .....                    ...................",
"...................                         ....              ....                 .....                    ....................",
".....................                        ....             ....                .....                    .....................",
"......................                       .....            ....               .....                    ......................",
".......................                       .....           ....              .....                    .......................",
"........................                       .....          ....             .....                    ........................",
".........................                       .....          ...            .....                    .........................",
"..........................                       .....         ...           ....                     ..........................",
"...........................                       .....        ...          ....                     ...........................",
"............................                       .....       ...        .....                     ............................",
".............................                       .....      ...       .....                     .............................",
"..............................                       .....     ...      .....                     ..............................",
"...............................                       .....    ...     .....                     ...............................",
"................................                       .....   ...    .....                     ................................",
".................................                       ....   ...   .....                     .................................",
"..................................                       ....  ...  .....                     ..................................",
"...................................                       ........ .....                     ...................................",
"....................................                       ............                     ....................................",
".....................................                      ...........                     .....................................",
"......................................                      .........                     ......................................",
".......................................                      ......                      .......................................",
"........................................                      ....                      ........................................",
".........................................                      ..                      .........................................",
"..........................................                                            ..........................................",
"...........................................                                          ...........................................",
"............................................                                        ............................................",
".............................................                                       ............................................",
"..............................................                                     .............................................",
"...............................................                                   ..............................................",
"................................................                                 ...............................................",
".................................................                               ................................................",
"..................................................                             .................................................",
"...................................................                           ..................................................",
"....................................................                         ...................................................",
".....................................................                       ....................................................",
"......................................................                     .....................................................",
".......................................................                   ......................................................",
"........................................................                 .......................................................",
".........................................................               ........................................................",
"..........................................................             .........................................................",
"...........................................................           ..........................................................",
"............................................................         ...........................................................",
".............................................................       ............................................................",
"..............................................................     .............................................................",
"...............................................................   ..............................................................",
"................................................................ ...............................................................",
"................................................................................................................................",
"................................................................................................................................",
"................................................................................................................................",
"................................................................................................................................",
"................................................................................................................................",
"................................................................................................................................",
"................................................................................................................................",
"................................................................................................................................",
"................................................................................................................................",
"................................................................................................................................",
"................................................................................................................................",
"................................................................................................................................",
"................................................................................................................................",
"................................................................................................................................",
"................................................................................................................................",
"................................................................................................................................",
"................................................................................................................................",
"................................................................................................................................",
"................................................................................................................................",
"................................................................................................................................"
};
